<?xml version="1.0" encoding="UTF-8" standalone="no"?>
<svg
   xmlns:dc="http://purl.org/dc/elements/1.1/"
   xmlns:cc="http://creativecommons.org/ns#"
   xmlns:rdf="http://www.w3.org/1999/02/22-rdf-syntax-ns#"
   xmlns:svg="http://www.w3.org/2000/svg"
   xmlns="http://www.w3.org/2000/svg"
   viewBox="0 0 492.04501 492.04501"
   height="492.04501"
   width="492.04501"
   xml:space="preserve"
   version="1.1"
   id="svg2"><metadata
     id="metadata8"><rdf:RDF><cc:Work
         rdf:about=""><dc:format>image/svg+xml</dc:format><dc:type
           rdf:resource="http://purl.org/dc/dcmitype/StillImage" /><dc:title></dc:title></cc:Work></rdf:RDF></metadata><defs
     id="defs6"><clipPath
       id="clipPath18"
       clipPathUnits="userSpaceOnUse"><path
         id="path20"
         d="M 0,800 800,800 800,0 0,0 0,800 Z" /></clipPath><clipPath
       id="clipPath142"
       clipPathUnits="userSpaceOnUse"><path
         id="path144"
         d="M 0,800 800,800 800,0 0,0 0,800 Z" /></clipPath><clipPath
       id="clipPath162"
       clipPathUnits="userSpaceOnUse"><path
         id="path164"
         d="m 203.182,618.566 298.822,0 0,-377.062 -298.822,0 0,377.062 z" /></clipPath><clipPath
       id="clipPath230"
       clipPathUnits="userSpaceOnUse"><path
         id="path232"
         d="M 0,800 800,800 800,0 0,0 0,800 Z" /></clipPath></defs><g
     transform="matrix(1.25,0,0,-1.25,-228.50955,695.05015)"
     id="g10"><g
       transform="translate(-20.374263,-79.100081)"
       id="g138"><g
         clip-path="url(#clipPath142)"
         id="g140"><g
           transform="translate(596.8179,438.3232)"
           id="g146"><path
             id="path148"
             style="fill:#99d4cc;fill-opacity:1;fill-rule:nonzero;stroke:none"
             d="m 0,0 c 0,-108.7 -88.118,-196.819 -196.816,-196.819 -108.701,0 -196.82,88.119 -196.82,196.819 0,108.7 88.119,196.817 196.82,196.817 C -88.118,196.817 0,108.7 0,0" /></g><g
           transform="translate(309.0415,433.2412)"
           id="g150"><path
             id="path152"
             style="fill:#84b144;fill-opacity:1;fill-rule:nonzero;stroke:none"
             d="m 0,0 c 17.164,30.933 -41.193,45.731 -31.582,91.32 9.612,45.589 37.761,28.483 64.068,51.994 25.327,22.634 6.392,49.261 4.945,51.214 C -45.255,171.212 -105.86,95.227 -105.86,5.082 c 0,-13.005 1.275,-25.71 3.682,-38.011 C -47.561,-47.949 -16.166,-29.135 0,0" /></g><g
           transform="translate(324.0396,382.5586)"
           id="g154"><path
             id="path156"
             style="fill:#84b144;fill-opacity:1;fill-rule:nonzero;stroke:none"
             d="M 0,0 C 28.58,5.405 47.642,-7.068 39.944,-24.948 32.248,-42.83 17.413,-57.717 27.601,-66.946 37.79,-76.176 33.704,-96.055 7.277,-106.865 -23.389,-119.41 3.755,-79.707 -16.497,-71.439 -92.776,-40.3 -23.259,-4.4 0,0" /></g><g
           id="g158"><g
             id="g160" /><g
             id="g166"><g
               style="opacity:0.5"
               id="g168"
               clip-path="url(#clipPath162)"><g
                 id="g170"
                 transform="translate(226.0449,450.2114)"><path
                   id="path172"
                   style="fill:#4e857a;fill-opacity:1;fill-rule:nonzero;stroke:none"
                   d="M 0,0 C 0,71.357 37.973,133.843 94.814,168.355 25.526,137.887 -22.863,68.657 -22.863,-11.888 c 0,-108.7 88.119,-196.82 196.82,-196.82 37.342,0 72.257,10.402 102.002,28.464 -24.219,-10.65 -50.985,-16.575 -79.14,-16.575 C 88.119,-196.819 0,-108.7 0,0" /></g></g></g></g><g
           transform="translate(487.5347,525.5142)"
           id="g174"><path
             id="path176"
             style="fill:#84b144;fill-opacity:1;fill-rule:nonzero;stroke:none"
             d="m 0,0 c 20.277,-29.26 78.199,-22.4 73.557,-46.28 -4.642,-23.879 -33.903,-45.91 -30.442,-71.611 3.203,-23.788 31.938,-39.281 51.606,-43.699 9.379,22.955 14.562,48.069 14.562,74.399 0,69.917 -36.461,131.312 -91.4,166.226 C 3.711,67.581 -25.858,37.313 0,0" /></g><g
           transform="translate(535.9253,342.3428)"
           id="g178"><path
             id="path180"
             style="fill:#84b144;fill-opacity:1;fill-rule:nonzero;stroke:none"
             d="M 0,0 C -9.793,-17.854 2.808,-35.703 6.297,-40.095 21.28,-24.441 33.697,-6.314 42.891,13.606 30.915,10.153 9.662,17.618 0,0" /></g><g
           transform="translate(399.9995,395.3818)"
           id="g182"><path
             id="path184"
             style="fill:#40331e;fill-opacity:1;fill-rule:nonzero;stroke:none"
             d="m 0,0 c -14.127,0 -25.62,11.494 -25.62,25.62 0,2.134 1.73,3.865 3.865,3.865 2.134,0 3.864,-1.731 3.864,-3.865 0,-9.865 8.026,-17.891 17.891,-17.891 9.865,0 17.893,8.026 17.893,17.891 0,2.134 1.728,3.865 3.863,3.865 2.135,0 3.865,-1.731 3.865,-3.865 C 25.621,11.494 14.127,0 0,0" /></g><g
           transform="translate(487.438,404.4297)"
           id="g186"><path
             id="path188"
             style="fill:#ff8a82;fill-opacity:1;fill-rule:nonzero;stroke:none"
             d="m 0,0 c 0,-3.815 -6.921,-6.908 -15.459,-6.908 -8.538,0 -15.459,3.093 -15.459,6.908 0,3.818 6.921,6.911 15.459,6.911 C -6.921,6.911 0,3.818 0,0" /></g><g
           transform="translate(343.4785,404.4297)"
           id="g190"><path
             id="path192"
             style="fill:#ff8a82;fill-opacity:1;fill-rule:nonzero;stroke:none"
             d="m 0,0 c 0,-3.815 -6.921,-6.908 -15.458,-6.908 -8.539,0 -15.459,3.093 -15.459,6.908 0,3.818 6.92,6.911 15.459,6.911 C -6.921,6.911 0,3.818 0,0" /></g><g
           transform="translate(471.5112,428.0068)"
           id="g194"><path
             id="path196"
             style="fill:#40331e;fill-opacity:1;fill-rule:nonzero;stroke:none"
             d="m 0,0 c 0,-8.137 -6.598,-14.734 -14.734,-14.734 -8.137,0 -14.735,6.597 -14.735,14.734 0,8.137 6.598,14.734 14.735,14.734 C -6.598,14.734 0,8.137 0,0" /></g><g
           transform="translate(357.9565,428.0068)"
           id="g198"><path
             id="path200"
             style="fill:#40331e;fill-opacity:1;fill-rule:nonzero;stroke:none"
             d="m 0,0 c 0,-8.137 -6.597,-14.734 -14.734,-14.734 -8.137,0 -14.734,6.597 -14.734,14.734 0,8.137 6.597,14.734 14.734,14.734 C -6.597,14.734 0,8.137 0,0" /></g><g
           transform="translate(344.2271,433.1245)"
           id="g202"><path
             id="path204"
             style="fill:#fffaef;fill-opacity:1;fill-rule:nonzero;stroke:none"
             d="m 0,0 c 0,-2.87 -2.327,-5.197 -5.198,-5.197 -2.871,0 -5.198,2.327 -5.198,5.197 0,2.87 2.327,5.199 5.198,5.199 C -2.327,5.199 0,2.87 0,0" /></g><g
           transform="translate(460.6733,433.1245)"
           id="g206"><path
             id="path208"
             style="fill:#fffaef;fill-opacity:1;fill-rule:nonzero;stroke:none"
             d="m 0,0 c 0,-2.87 -2.326,-5.197 -5.197,-5.197 -2.871,0 -5.199,2.327 -5.199,5.197 0,2.87 2.328,5.199 5.199,5.199 C -2.326,5.199 0,2.87 0,0" /></g><g
           transform="translate(574.4429,441.585)"
           id="g210"><path
             id="path212"
             style="fill:#fdfadb;fill-opacity:1;fill-rule:nonzero;stroke:none"
             d="m 0,0 c -2.748,0 -4.975,2.363 -4.975,5.28 0,88.129 -67.545,159.829 -150.566,159.829 -2.747,0 -4.975,2.364 -4.975,5.281 0,2.916 2.228,5.279 4.975,5.279 C -67.033,175.669 4.973,99.233 4.973,5.28 4.973,2.363 2.746,0 0,0" /></g><g
           transform="translate(581.6694,422.9307)"
           id="g214"><path
             id="path216"
             style="fill:#fdfadb;fill-opacity:1;fill-rule:nonzero;stroke:none"
             d="m 0,0 c 0,-4.237 -3.235,-7.67 -7.227,-7.67 -3.992,0 -7.229,3.433 -7.229,7.67 0,4.238 3.237,7.673 7.229,7.673 C -3.235,7.673 0,4.238 0,0" /></g><g
           transform="translate(223.981,600.4512)"
           id="g218" /></g></g></g></svg>